<svg xmlns="http://www.w3.org/2000/svg" xmlns:xlink="http://www.w3.org/1999/xlink" width="640" height="90" preserveAspectRatio="xMidYMid meet" version="1.0" viewBox="0 0 480 67.5" zoomAndPan="magnify"><defs><clipPath id="5cc2aca428"><path d="M 1.765625 3 L 21 3 L 21 23 L 1.765625 23 Z M 1.765625 3" clip-rule="nonzero"/></clipPath></defs><path fill="#ff3d00" fill-opacity="1" fill-rule="nonzero" d="M 8.046875 19.214844 C 10.402344 15.5625 13.511719 12.445312 17.15625 10.078125 C 17.027344 10.011719 16.902344 9.949219 16.769531 9.886719 C 12.324219 7.535156 7.324219 5.601562 5.457031 7.472656 C 3.589844 9.332031 5.671875 14.695312 7.996094 19.121094 C 8.007812 19.144531 8.03125 19.1875 8.046875 19.214844 Z M 8.046875 19.214844"/><path fill="#ff3d00" fill-opacity="1" fill-rule="nonzero" d="M 61.363281 7.71875 C 64.398438 10.753906 55.980469 24.09375 54.558594 25.519531 C 53.128906 26.9375 49.515625 25.632812 46.480469 22.601562 C 43.445312 19.5625 42.140625 15.949219 43.558594 14.519531 C 44.988281 13.101562 58.324219 4.679688 61.363281 7.71875 Z M 61.363281 7.71875"/><path fill="#ff3d00" fill-opacity="1" fill-rule="nonzero" d="M 56.765625 27.742188 C 56.089844 28.414062 54.871094 29.226562 52.949219 29.226562 C 50.277344 29.226562 47.03125 27.578125 44.265625 24.816406 C 39.796875 20.355469 38.570312 15.089844 41.347656 12.296875 C 41.695312 11.953125 42.679688 11.214844 44.042969 10.316406 C 40.859375 9.019531 37.378906 8.296875 33.734375 8.296875 C 18.582031 8.296875 6.300781 20.578125 6.300781 35.71875 C 6.300781 50.871094 18.582031 63.148438 33.734375 63.148438 C 48.882812 63.148438 61.160156 50.871094 61.160156 35.722656 C 61.160156 31.851562 60.351562 28.183594 58.90625 24.839844 C 58.039062 26.1875 57.253906 27.253906 56.765625 27.742188 Z M 56.765625 27.742188"/><path fill="#eceff1" fill-opacity="1" fill-rule="nonzero" d="M 59.359375 7.0625 C 60.210938 7.0625 60.902344 7.261719 61.363281 7.71875 C 64.398438 10.753906 55.980469 24.09375 54.558594 25.519531 C 54.167969 25.910156 53.613281 26.09375 52.945312 26.09375 C 51.191406 26.09375 48.683594 24.800781 46.480469 22.601562 C 43.441406 19.5625 42.140625 15.949219 43.558594 14.519531 C 44.769531 13.316406 54.570312 7.0625 59.359375 7.0625 M 59.359375 3.742188 C 53.171875 3.742188 42.546875 10.84375 41.21875 12.164062 C 38.363281 15.039062 39.597656 20.410156 44.136719 24.949219 C 46.9375 27.742188 50.230469 29.410156 52.949219 29.410156 C 54.933594 29.410156 56.195312 28.574219 56.902344 27.871094 C 58.035156 26.738281 60.714844 22.570312 62.613281 18.679688 C 64.644531 14.527344 66.964844 8.628906 63.707031 5.371094 C 62.964844 4.628906 61.609375 3.742188 59.359375 3.742188 Z M 59.359375 3.742188"/><path fill="#eceff1" fill-opacity="1" fill-rule="nonzero" d="M 33.734375 8.296875 C 37.378906 8.296875 40.859375 9.019531 44.042969 10.316406 C 42.679688 11.214844 41.695312 11.953125 41.347656 12.296875 C 38.570312 15.089844 39.796875 20.355469 44.265625 24.816406 C 47.03125 27.578125 50.277344 29.226562 52.949219 29.226562 C 54.871094 29.226562 56.089844 28.414062 56.765625 27.742188 C 57.253906 27.253906 58.039062 26.1875 58.90625 24.839844 C 60.351562 28.183594 61.160156 31.851562 61.160156 35.722656 C 61.164062 50.871094 48.882812 63.148438 33.734375 63.148438 C 18.582031 63.148438 6.300781 50.871094 6.300781 35.722656 C 6.300781 20.578125 18.582031 8.296875 33.734375 8.296875 M 33.734375 4.976562 C 16.777344 4.976562 2.984375 18.769531 2.984375 35.71875 C 2.984375 52.675781 16.777344 66.46875 33.734375 66.46875 C 50.6875 66.46875 64.480469 52.675781 64.480469 35.722656 C 64.480469 31.507812 63.628906 27.402344 61.953125 23.523438 L 59.488281 17.8125 L 56.117188 23.039062 C 55.175781 24.503906 54.597656 25.214844 54.425781 25.390625 C 54.074219 25.738281 53.589844 25.910156 52.949219 25.910156 C 51.613281 25.910156 49.15625 25.007812 46.609375 22.464844 C 43.402344 19.261719 42.515625 15.828125 43.703125 14.640625 C 43.804688 14.546875 44.480469 14.003906 45.871094 13.085938 L 51.136719 9.617188 L 45.296875 7.238281 C 41.605469 5.738281 37.714844 4.976562 33.734375 4.976562 Z M 33.734375 4.976562"/><g clip-path="url(#5cc2aca428)"><path fill="#eceff1" fill-opacity="1" fill-rule="nonzero" d="M 5.140625 20.820312 L 6.042969 22.433594 C 6.613281 21.257812 7.238281 20.113281 7.945312 19.023438 C 5.640625 14.621094 3.601562 9.320312 5.453125 7.472656 C 5.980469 6.949219 6.75 6.722656 7.6875 6.722656 C 10.089844 6.722656 13.574219 8.199219 16.769531 9.886719 C 16.835938 9.921875 16.902344 9.953125 16.964844 9.984375 C 18.066406 9.265625 19.226562 8.628906 20.417969 8.054688 L 18.71875 7.148438 C 18.5625 7.066406 18.410156 6.992188 18.253906 6.917969 C 13.769531 4.554688 10.3125 3.402344 7.691406 3.402344 C 5.328125 3.402344 3.894531 4.339844 3.109375 5.125 C 0.328125 7.898438 0.945312 12.835938 5.058594 20.664062 C 5.085938 20.71875 5.113281 20.773438 5.140625 20.820312 Z M 5.140625 20.820312"/></g><g fill="red" fill-opacity="1"><g><g><path d="M 39.382812 -10.976562 L 45.839844 -17.429688 L 45.839844 -38.738281 L 39.382812 -45.191406 L 0.324219 -45.191406 L 0.324219 -34.863281 L 35.507812 -34.863281 L 35.507812 -21.304688 L 15.496094 -21.304688 L 15.496094 -31.636719 L 5.164062 -31.636719 L 5.164062 0 L 15.496094 0 L 15.496094 -10.976562 L 26.277344 -10.976562 C 29.503906 -7.296875 32.667969 -3.617188 35.960938 0 L 49.066406 0 C 45.773438 -3.617188 42.609375 -7.296875 39.382812 -10.976562 Z M 39.382812 -10.976562" transform="translate(72.257216, 56.561426)"/></g></g></g><g fill="red" fill-opacity="1"><g><g><path d="M 43.902344 0 L 50.359375 -6.457031 L 50.359375 -38.738281 L 43.902344 -45.191406 L 9.683594 -45.191406 L 3.226562 -38.738281 L 3.226562 -6.457031 L 9.683594 0 Z M 40.027344 -10.328125 L 13.558594 -10.328125 L 13.558594 -34.863281 L 40.027344 -34.863281 Z M 40.027344 -10.328125" transform="translate(128.870098, 56.561426)"/></g></g></g><g fill="red" fill-opacity="1"><g><g><path d="M 41.964844 0 L 48.421875 -6.457031 L 48.421875 -16.140625 L 41.964844 -22.597656 L 48.421875 -29.050781 L 48.421875 -38.738281 L 41.964844 -45.191406 L 0.324219 -45.191406 L 0.324219 -34.863281 L 5.164062 -34.863281 L 5.164062 0 Z M 38.089844 -10.328125 L 15.496094 -10.328125 L 15.496094 -17.429688 L 38.089844 -17.429688 Z M 38.089844 -27.761719 L 15.496094 -27.761719 L 15.496094 -34.863281 L 38.089844 -34.863281 Z M 38.089844 -27.761719" transform="translate(189.356076, 56.561426)"/></g></g></g><g fill="red" fill-opacity="1"><g><g><path d="M 41.964844 0 L 48.421875 -6.457031 L 48.421875 -16.140625 L 41.964844 -22.597656 L 48.421875 -29.050781 L 48.421875 -38.738281 L 41.964844 -45.191406 L 0.324219 -45.191406 L 0.324219 -34.863281 L 5.164062 -34.863281 L 5.164062 0 Z M 38.089844 -10.328125 L 15.496094 -10.328125 L 15.496094 -17.429688 L 38.089844 -17.429688 Z M 38.089844 -27.761719 L 15.496094 -27.761719 L 15.496094 -34.863281 L 38.089844 -34.863281 Z M 38.089844 -27.761719" transform="translate(247.905517, 56.561426)"/></g></g></g><g fill="red" fill-opacity="1"><g><g><path d="M 13.558594 0 L 13.558594 -45.191406 L 3.226562 -45.191406 L 3.226562 0 Z M 13.558594 0" transform="translate(306.454959, 56.561426)"/></g></g></g><g fill="red" fill-opacity="1"><g><g><path d="M 13.558594 0 L 13.558594 -11.621094 L 3.226562 -11.621094 L 3.226562 0 Z M 13.558594 0" transform="translate(330.146626, 56.561426)"/></g></g></g><g fill="red" fill-opacity="1"><g><g><path d="M 15.171875 -45.191406 L 0.324219 -45.191406 L 0.324219 -34.863281 L 5.164062 -34.863281 L 5.164062 0 L 15.496094 0 L 15.496094 -27.566406 C 20.144531 -21.242188 24.792969 -14.914062 29.503906 -8.585938 C 34.152344 -14.914062 38.867188 -21.242188 43.578125 -27.566406 L 43.578125 0 L 53.910156 0 L 53.910156 -45.191406 L 43.902344 -45.191406 C 39.058594 -38.738281 34.28125 -32.214844 29.503906 -25.761719 Z M 15.171875 -45.191406" transform="translate(353.838294, 56.561426)"/></g></g></g><g fill="red" fill-opacity="1"><g><g><path d="M 42.289062 0 L 48.742188 -6.457031 L 48.742188 -45.191406 L 38.414062 -45.191406 L 38.414062 -28.082031 L 13.558594 -28.082031 L 13.558594 -45.191406 L 3.226562 -45.191406 L 3.226562 -24.210938 L 9.683594 -17.753906 L 38.414062 -17.753906 L 38.414062 -10.328125 L 6.457031 -10.328125 L 6.457031 0 Z M 42.289062 0" transform="translate(417.874594, 56.561426)"/></g></g></g><g fill="#0ff" fill-opacity="1"><g><g><path d="M 39.382812 -10.976562 L 45.839844 -17.429688 L 45.839844 -38.738281 L 39.382812 -45.191406 L 0.324219 -45.191406 L 0.324219 -34.863281 L 35.507812 -34.863281 L 35.507812 -21.304688 L 15.496094 -21.304688 L 15.496094 -31.636719 L 5.164062 -31.636719 L 5.164062 0 L 15.496094 0 L 15.496094 -10.976562 L 26.277344 -10.976562 C 29.503906 -7.296875 32.667969 -3.617188 35.960938 0 L 49.066406 0 C 45.773438 -3.617188 42.609375 -7.296875 39.382812 -10.976562 Z M 39.382812 -10.976562" transform="translate(78.665459, 55.774593)"/></g></g></g><g fill="#0ff" fill-opacity="1"><g><g><path d="M 43.902344 0 L 50.359375 -6.457031 L 50.359375 -38.738281 L 43.902344 -45.191406 L 9.683594 -45.191406 L 3.226562 -38.738281 L 3.226562 -6.457031 L 9.683594 0 Z M 40.027344 -10.328125 L 13.558594 -10.328125 L 13.558594 -34.863281 L 40.027344 -34.863281 Z M 40.027344 -10.328125" transform="translate(135.278342, 55.774593)"/></g></g></g><g fill="#0ff" fill-opacity="1"><g><g><path d="M 41.964844 0 L 48.421875 -6.457031 L 48.421875 -16.140625 L 41.964844 -22.597656 L 48.421875 -29.050781 L 48.421875 -38.738281 L 41.964844 -45.191406 L 0.324219 -45.191406 L 0.324219 -34.863281 L 5.164062 -34.863281 L 5.164062 0 Z M 38.089844 -10.328125 L 15.496094 -10.328125 L 15.496094 -17.429688 L 38.089844 -17.429688 Z M 38.089844 -27.761719 L 15.496094 -27.761719 L 15.496094 -34.863281 L 38.089844 -34.863281 Z M 38.089844 -27.761719" transform="translate(195.764319, 55.774593)"/></g></g></g><g fill="#0ff" fill-opacity="1"><g><g><path d="M 41.964844 0 L 48.421875 -6.457031 L 48.421875 -16.140625 L 41.964844 -22.597656 L 48.421875 -29.050781 L 48.421875 -38.738281 L 41.964844 -45.191406 L 0.324219 -45.191406 L 0.324219 -34.863281 L 5.164062 -34.863281 L 5.164062 0 Z M 38.089844 -10.328125 L 15.496094 -10.328125 L 15.496094 -17.429688 L 38.089844 -17.429688 Z M 38.089844 -27.761719 L 15.496094 -27.761719 L 15.496094 -34.863281 L 38.089844 -34.863281 Z M 38.089844 -27.761719" transform="translate(254.31376, 55.774593)"/></g></g></g><g fill="#0ff" fill-opacity="1"><g><g><path d="M 13.558594 0 L 13.558594 -45.191406 L 3.226562 -45.191406 L 3.226562 0 Z M 13.558594 0" transform="translate(312.863202, 55.774593)"/></g></g></g><g fill="#0ff" fill-opacity="1"><g><g><path d="M 13.558594 0 L 13.558594 -11.621094 L 3.226562 -11.621094 L 3.226562 0 Z M 13.558594 0" transform="translate(336.554869, 55.774593)"/></g></g></g><g fill="#0ff" fill-opacity="1"><g><g><path d="M 15.171875 -45.191406 L 0.324219 -45.191406 L 0.324219 -34.863281 L 5.164062 -34.863281 L 5.164062 0 L 15.496094 0 L 15.496094 -27.566406 C 20.144531 -21.242188 24.792969 -14.914062 29.503906 -8.585938 C 34.152344 -14.914062 38.867188 -21.242188 43.578125 -27.566406 L 43.578125 0 L 53.910156 0 L 53.910156 -45.191406 L 43.902344 -45.191406 C 39.058594 -38.738281 34.28125 -32.214844 29.503906 -25.761719 Z M 15.171875 -45.191406" transform="translate(360.246537, 55.774593)"/></g></g></g><g fill="#0ff" fill-opacity="1"><g><g><path d="M 42.289062 0 L 48.742188 -6.457031 L 48.742188 -45.191406 L 38.414062 -45.191406 L 38.414062 -28.082031 L 13.558594 -28.082031 L 13.558594 -45.191406 L 3.226562 -45.191406 L 3.226562 -24.210938 L 9.683594 -17.753906 L 38.414062 -17.753906 L 38.414062 -10.328125 L 6.457031 -10.328125 L 6.457031 0 Z M 42.289062 0" transform="translate(424.282837, 55.774593)"/></g></g></g><g fill="#fff" fill-opacity="1"><g><g><path d="M 39.382812 -10.976562 L 45.839844 -17.429688 L 45.839844 -38.738281 L 39.382812 -45.191406 L 0.324219 -45.191406 L 0.324219 -34.863281 L 35.507812 -34.863281 L 35.507812 -21.304688 L 15.496094 -21.304688 L 15.496094 -31.636719 L 5.164062 -31.636719 L 5.164062 0 L 15.496094 0 L 15.496094 -10.976562 L 26.277344 -10.976562 C 29.503906 -7.296875 32.667969 -3.617188 35.960938 0 L 49.066406 0 C 45.773438 -3.617188 42.609375 -7.296875 39.382812 -10.976562 Z M 39.382812 -10.976562" transform="translate(75.461337, 56.16801)"/></g></g></g><g fill="#fff" fill-opacity="1"><g><g><path d="M 43.902344 0 L 50.359375 -6.457031 L 50.359375 -38.738281 L 43.902344 -45.191406 L 9.683594 -45.191406 L 3.226562 -38.738281 L 3.226562 -6.457031 L 9.683594 0 Z M 40.027344 -10.328125 L 13.558594 -10.328125 L 13.558594 -34.863281 L 40.027344 -34.863281 Z M 40.027344 -10.328125" transform="translate(132.07422, 56.16801)"/></g></g></g><g fill="#fff" fill-opacity="1"><g><g><path d="M 41.964844 0 L 48.421875 -6.457031 L 48.421875 -16.140625 L 41.964844 -22.597656 L 48.421875 -29.050781 L 48.421875 -38.738281 L 41.964844 -45.191406 L 0.324219 -45.191406 L 0.324219 -34.863281 L 5.164062 -34.863281 L 5.164062 0 Z M 38.089844 -10.328125 L 15.496094 -10.328125 L 15.496094 -17.429688 L 38.089844 -17.429688 Z M 38.089844 -27.761719 L 15.496094 -27.761719 L 15.496094 -34.863281 L 38.089844 -34.863281 Z M 38.089844 -27.761719" transform="translate(192.560197, 56.16801)"/></g></g></g><g fill="#fff" fill-opacity="1"><g><g><path d="M 41.964844 0 L 48.421875 -6.457031 L 48.421875 -16.140625 L 41.964844 -22.597656 L 48.421875 -29.050781 L 48.421875 -38.738281 L 41.964844 -45.191406 L 0.324219 -45.191406 L 0.324219 -34.863281 L 5.164062 -34.863281 L 5.164062 0 Z M 38.089844 -10.328125 L 15.496094 -10.328125 L 15.496094 -17.429688 L 38.089844 -17.429688 Z M 38.089844 -27.761719 L 15.496094 -27.761719 L 15.496094 -34.863281 L 38.089844 -34.863281 Z M 38.089844 -27.761719" transform="translate(251.109639, 56.16801)"/></g></g></g><g fill="#fff" fill-opacity="1"><g><g><path d="M 13.558594 0 L 13.558594 -45.191406 L 3.226562 -45.191406 L 3.226562 0 Z M 13.558594 0" transform="translate(309.65908, 56.16801)"/></g></g></g><g fill="#fff" fill-opacity="1"><g><g><path d="M 13.558594 0 L 13.558594 -11.621094 L 3.226562 -11.621094 L 3.226562 0 Z M 13.558594 0" transform="translate(333.350748, 56.16801)"/></g></g></g><g fill="#fff" fill-opacity="1"><g><g><path d="M 15.171875 -45.191406 L 0.324219 -45.191406 L 0.324219 -34.863281 L 5.164062 -34.863281 L 5.164062 0 L 15.496094 0 L 15.496094 -27.566406 C 20.144531 -21.242188 24.792969 -14.914062 29.503906 -8.585938 C 34.152344 -14.914062 38.867188 -21.242188 43.578125 -27.566406 L 43.578125 0 L 53.910156 0 L 53.910156 -45.191406 L 43.902344 -45.191406 C 39.058594 -38.738281 34.28125 -32.214844 29.503906 -25.761719 Z M 15.171875 -45.191406" transform="translate(357.042415, 56.16801)"/></g></g></g><g fill="#fff" fill-opacity="1"><g><g><path d="M 42.289062 0 L 48.742188 -6.457031 L 48.742188 -45.191406 L 38.414062 -45.191406 L 38.414062 -28.082031 L 13.558594 -28.082031 L 13.558594 -45.191406 L 3.226562 -45.191406 L 3.226562 -24.210938 L 9.683594 -17.753906 L 38.414062 -17.753906 L 38.414062 -10.328125 L 6.457031 -10.328125 L 6.457031 0 Z M 42.289062 0" transform="translate(421.078716, 56.16801)"/></g></g></g><script xmlns=""/></svg>